<?xml version="1.0" standalone="no"?><!DOCTYPE svg PUBLIC "-//W3C//DTD SVG 1.1//EN" "http://www.w3.org/Graphics/SVG/1.1/DTD/svg11.dtd"><svg t="1618040873553" class="icon" viewBox="0 0 1024 1024" version="1.1" xmlns="http://www.w3.org/2000/svg" p-id="7123" xmlns:xlink="http://www.w3.org/1999/xlink" width="64" height="64"><defs><style type="text/css"></style></defs><path d="M556.373333 888.106667a39.509333 39.509333 0 0 1-51.584 21.333333L47.104 719.274667a39.509333 39.509333 0 0 1 30.293333-72.917334l457.6 190.208a39.253333 39.253333 0 0 1 21.418667 51.498667z" fill="#9013FE" p-id="7124"></path><path d="M483.882667 887.893333a39.509333 39.509333 0 0 0 51.626666 21.333334l442.026667-183.722667a39.509333 39.509333 0 0 0-30.336-72.917333l-442.026667 183.722666a39.509333 39.509333 0 0 0-21.290666 51.626667z m72.533333-169.813333a39.509333 39.509333 0 0 1-51.626667 21.333333L47.104 549.290667a39.509333 39.509333 0 0 1 30.293333-72.874667l457.6 190.165333a39.253333 39.253333 0 0 1 21.418667 51.498667z" fill="#9013FE" p-id="7125"></path><path d="M483.882667 717.909333a39.509333 39.509333 0 0 0 51.626666 21.290667l442.026667-183.68a39.509333 39.509333 0 0 0-30.336-72.96l-442.026667 183.722667a39.509333 39.509333 0 0 0-21.290666 51.626666z m515.626666-394.24a39.466667 39.466667 0 0 0-22.101333-23.381333L519.808 110.08a38.997333 38.997333 0 0 0-15.616-2.986667 38.997333 38.997333 0 0 0-15.573333 2.986667L47.36 293.418667a39.082667 39.082667 0 0 0-22.912 25.898666L24.32 320v0.085333c-5.333333 18.901333 4.266667 39.296 22.869333 47.018667l457.6 190.208c10.24 4.181333 21.205333 3.882667 30.592-0.128h0.128l442.026667-183.68a39.296 39.296 0 0 0 21.973333-49.792z" fill="#9013FE" p-id="7126"></path></svg>