<?xml version="1.0" standalone="no"?><!DOCTYPE svg PUBLIC "-//W3C//DTD SVG 1.1//EN" "http://www.w3.org/Graphics/SVG/1.1/DTD/svg11.dtd"><svg t="1618040496965" class="icon" viewBox="0 0 1024 1024" version="1.1" xmlns="http://www.w3.org/2000/svg" p-id="2010" xmlns:xlink="http://www.w3.org/1999/xlink" width="64" height="64"><defs><style type="text/css"></style></defs><path d="M295.424 906.24h586.752c33.28 0 59.904-26.624 59.904-59.904V484.864c0-33.28-26.624-59.904-59.904-59.904H295.424C262.144 424.96 235.52 451.584 235.52 484.864v361.472c0 33.28 26.624 59.904 59.904 59.904z" fill="#60B1F5" opacity=".3" p-id="2011"></path><path d="M29.184 69.632v884.736h965.12V69.632H29.184z m885.248 804.352H109.568V294.912h804.352v579.072z m-330.24-289.792H680.96v-64.512h128.512v-56.32H680.96V399.36h-96.768v64.512H214.528v56.32h370.176v64h-0.512z m-168.96 24.576H318.976v64.512H214.528v56.32h104.448v72.192h96.768V737.28h402.432v-56.32H415.232v-72.192z" fill="#60B1F5" p-id="2012"></path></svg>