<?xml version="1.0" standalone="no"?><!DOCTYPE svg PUBLIC "-//W3C//DTD SVG 1.1//EN" "http://www.w3.org/Graphics/SVG/1.1/DTD/svg11.dtd"><svg t="1618040576982" class="icon" viewBox="0 0 1206 1024" version="1.1" xmlns="http://www.w3.org/2000/svg" p-id="2790" xmlns:xlink="http://www.w3.org/1999/xlink" width="75.375" height="64"><defs><style type="text/css"></style></defs><path d="M923.483971 466.35028h11.771683a235.251154 235.251154 0 0 1 235.251154 235.251154v217.593629H688.324071v-217.593629a235.251154 235.251154 0 0 1 235.1599-235.251154z" fill="#96BCEF" p-id="2791"></path><path d="M1105.123778 953.050059h-351.325424a101.519359 101.519359 0 0 1-101.382479-101.38248v-148.697345a270.657456 270.657456 0 0 1 270.201189-270.383696h13.688004a270.657456 270.657456 0 0 1 270.338069 270.33807v148.697345a101.519359 101.519359 0 0 1-101.519359 101.428106z m-182.506714-419.035415a169.183724 169.183724 0 0 0-168.81871 168.81871v148.697345h351.325424v-148.697345a169.183724 169.183724 0 0 0-168.81871-168.81871z m-651.001447-52.926947h10.996029a220.011843 220.011843 0 0 1 220.011843 220.011844v203.540612H51.558147v-203.540612a220.011843 220.011843 0 0 1 220.05747-220.05747z" fill="#96BCEF" p-id="2792"></path><path d="M452.844783 953.050059h-351.325424A101.519359 101.519359 0 0 1 0 851.621953v-148.697345a270.657456 270.657456 0 0 1 270.33807-270.33807h13.688003a270.657456 270.657456 0 0 1 270.33807 270.33807v148.697345a101.519359 101.519359 0 0 1-101.51936 101.428106z m-182.506713-419.035415a169.183724 169.183724 0 0 0-168.818711 168.81871v148.697345h351.325424v-148.697345a169.183724 169.183724 0 0 0-168.81871-168.81871z" fill="#96BCEF" p-id="2793"></path><path d="M736.323336 209.517707a192.772716 192.772716 0 0 1 192.544583-192.498956 192.772716 192.772716 0 0 1 192.59021 192.498956 192.72709 192.72709 0 0 1-192.59021 192.498957 192.772716 192.772716 0 0 1-192.544583-192.498957z" fill="#96BCEF" p-id="2794"></path><path d="M84.044342 209.517707A192.818343 192.818343 0 0 1 276.680178 17.018751a192.59021 192.59021 0 0 1 192.407703 192.498956 192.498956 192.498956 0 0 1-192.407703 192.498957 192.72709 192.72709 0 0 1-192.635836-192.498957z" fill="#96BCEF" p-id="2795"></path><path d="M388.648047 212.894081A212.894081 212.894081 0 1 0 601.542128 0a212.894081 212.894081 0 0 0-212.894081 212.894081z" fill="#005CD8" p-id="2796"></path><path d="M601.542128 425.83379a212.894081 212.894081 0 1 1 212.894082-212.894082 213.167842 213.167842 0 0 1-212.894082 212.894082z m0-324.451311a111.511602 111.511602 0 1 0 111.511602 111.511602 111.648482 111.648482 0 0 0-111.511602-111.511602z" fill="#005CD8" p-id="2797"></path><path d="M572.112921 489.893646h58.812788a235.296781 235.296781 0 0 1 235.296781 235.296781v261.669001h-529.26947v-261.805881a235.296781 235.296781 0 0 1 235.159901-235.159901z" fill="#005CD8" p-id="2798"></path><path d="M804.307087 1023.999544H398.777169a101.519359 101.519359 0 0 1-101.382479-101.199973v-199.388585a270.657456 270.657456 0 0 1 270.33807-270.566203h67.57311a270.657456 270.657456 0 0 1 270.33807 270.33807v199.388585a101.519359 101.519359 0 0 1-101.336853 101.428106z m-236.574327-469.954788a169.183724 169.183724 0 0 0-168.818711 168.81871v199.388585h405.621172v-199.388585a169.183724 169.183724 0 0 0-168.818711-168.81871z" fill="#005CD8" p-id="2799"></path></svg>