<?xml version="1.0" standalone="no"?><!DOCTYPE svg PUBLIC "-//W3C//DTD SVG 1.1//EN" "http://www.w3.org/Graphics/SVG/1.1/DTD/svg11.dtd">
<svg t="1612357823995" class="icon" viewBox="0 0 1024 1024" version="1.1" xmlns="http://www.w3.org/2000/svg"
     p-id="15806"
     width="64" height="64"><defs><style type="text/css"></style></defs><path d="M67.09308682 329.68758613c-16.40438898 0-29.7018861-13.29749712-29.70188611-29.7018861s13.29749712-29.7018861 29.70188611-29.70188611h833.64122168c16.40438898 0 29.7018861 13.29749712 29.70188611 29.70188611s-13.29749712 29.7018861-29.70188611 29.7018861H67.09308682zM379.02502875 632.17457683c-16.40438898 0-29.7018861-13.29749712-29.70188612-29.70188611s13.29749712-29.7018861 29.70188612-29.7018861h110.10824722c16.40438898 0 29.7018861 13.29749712 29.70188611 29.7018861s-13.29749712 29.7018861-29.70188611 29.70188611H379.02502875zM268.91678151 638.51263621c-6.33805938 0-12.55184308-1.73985943-18.14424841-4.84675129-11.18481067-6.46233505-18.14424842-18.51707543-18.14424842-31.31746987 0-20.00838352 16.2801133-36.16422115 36.16422115-36.16422115 20.00838352 0 36.16422115 16.2801133 36.16422116 36.16422115 0 12.9246701-6.95943775 24.85513482-18.14424841 31.31746987-5.34385398 3.3554432-11.55763769 4.84675129-17.89569707 4.84675129zM379.02502875 506.40759467c-16.40438898 0-29.7018861-13.29749712-29.70188612-29.7018861s13.29749712-29.7018861 29.70188612-29.70188612h235.62667803c16.40438898 0 29.7018861 13.29749712 29.70188611 29.70188612s-13.29749712 29.7018861-29.70188611 29.7018861H379.02502875zM268.91678151 512.86992972c-6.33805938 0-12.55184308-1.73985943-18.14424841-4.84675129-11.18481067-6.46233505-18.14424842-18.51707543-18.14424842-31.31746986 0-20.00838352 16.2801133-36.16422115 36.16422115-36.16422116 20.00838352 0 36.16422115 16.2801133 36.16422116 36.16422116 0 12.9246701-6.95943775 24.85513482-18.14424841 31.31746986-5.34385398 3.23116752-11.55763769 4.84675129-17.89569707 4.84675129zM379.02502875 757.81728332c-16.40438898 0-29.7018861-13.29749712-29.70188612-29.7018861S362.62063977 698.41351111 379.02502875 698.41351111h52.32005877c16.40438898 0 29.7018861 13.29749712 29.70188611 29.70188611s-13.29749712 29.7018861-29.70188611 29.7018861H379.02502875zM268.91678151 764.27961837c-6.33805938 0-12.55184308-1.73985943-18.14424841-4.84675129-11.18481067-6.46233505-18.14424842-18.51707543-18.14424842-31.31746986 0-20.00838352 16.2801133-36.16422115 36.16422115-36.16422117 20.00838352 0 36.16422115 16.2801133 36.16422116 36.16422117 0 12.9246701-6.95943775 24.85513482-18.14424841 31.31746986-5.34385398 3.23116752-11.55763769 4.84675129-17.89569707 4.84675129z" fill="#FEBF2B" p-id="15807"></path><path d="M157.93860457 949.20182139c-69.9672045 0-127.0097389-56.91825872-127.00973892-127.0097389V219.5793389c0-69.9672045 56.91825872-127.0097389 127.00973892-127.0097389h112.84231205v-47.97041019c0-18.01997275 11.68191337-29.7018861 29.7018861-29.70188611s29.7018861 11.68191337 29.70188611 29.70188611v47.97041019h303.35692042v-47.97041019c0-18.01997275 11.68191337-29.7018861 29.7018861-29.70188611 18.01997275 0 29.7018861 11.68191337 29.7018861 29.70188611v47.97041019h112.84231206c69.9672045 0 127.0097389 56.91825872 127.00973891 127.0097389v227.54875923c0 12.9246701-8.32647017 24.35803212-20.6297619 28.33485369-2.98261618 0.99420539-6.08950803 1.49130809-9.19639989 1.49130809-16.40438898 0-29.7018861-13.29749712-29.7018861-29.82616178V219.5793389c0-37.15842655-30.32326448-67.48169102-67.48169102-67.48169102h-112.59376071v29.45333475c0 18.51707543-19.26272948 29.7018861-29.7018861 29.70188612-18.01997275 0-29.7018861-11.68191337-29.70188611-29.70188612v-29.45333475H330.3089645v29.45333475c0 18.01997275-11.68191337 29.7018861-29.7018861 29.70188612-10.43915662 0-29.7018861-11.30908635-29.7018861-29.70188612v-29.45333475h-112.84231207c-37.15842655 0-67.48169102 30.1989888-67.48169101 67.48169102v602.61274359c0 37.15842655 30.1989888 67.48169102 67.48169101 67.48169102h273.40648297c9.81777825 0 18.64135111 4.72247562 24.23375645 12.80039444 5.59240533 8.20219449 6.7108864 18.01997275 2.98261617 27.21637262l-0.37282702 0.86992971c-4.47392427 11.30908635-15.16163223 18.51707543-27.21637262 18.51707544l-273.15793161 0.12427567z" fill="#FEBF2B" p-id="15808"></path><path d="M756.69880225 536.48230779c-130.48945778 0-236.49660777 106.00714998-236.49660776 236.37233209C520.20219449 903.09554631 626.33362015 1009.1026963 756.69880225 1009.1026963s236.37233209-106.00714998 236.3723321-236.37233209c0-130.24090643-106.00714998-236.24805642-236.3723321-236.24805642z m0 413.46516764c-97.68067982 0-177.21711123-79.53643141-177.21711123-177.21711122s79.53643141-177.21711123 177.21711123-177.21711123 177.21711123 79.53643141 177.21711123 177.21711123-79.53643141 177.21711123-177.21711123 177.21711122z" fill="#472D22" p-id="15809"></path><path d="M725.75415941 772.60608853v-88.73283128c0-16.2801133 13.17322145-29.57761043 29.57761042-29.57761043 16.2801133 0 29.57761043 13.17322145 29.57761044 29.57761043v59.15522085h59.15522085c16.2801133 0 29.57761043 13.17322145 29.57761043 29.57761043 0 16.2801133-13.17322145 29.57761043-29.57761043 29.57761044H725.75415941v-29.57761044z" fill="#472D22" p-id="15810"></path></svg>
