<?xml version="1.0" standalone="no"?><!DOCTYPE svg PUBLIC "-//W3C//DTD SVG 1.1//EN" "http://www.w3.org/Graphics/SVG/1.1/DTD/svg11.dtd"><svg t="1618040947164" class="icon" viewBox="0 0 1024 1024" version="1.1" xmlns="http://www.w3.org/2000/svg" p-id="7912" xmlns:xlink="http://www.w3.org/1999/xlink" width="64" height="64"><defs><style type="text/css"></style></defs><path d="M541.6 778.9l-48.4 48.3 28.7 28.6c5.9 5.9 14.7 9.4 24.2 9.4s18.3-3.4 24.2-9.4c13.2-13.3 13.2-34.9 0-48.3l-28.7-28.6zM799.1 578.7L602.8 385.2 513 475c-16.6 16.7-39.5 26.2-63.1 26.2h-0.5c-23.5 0-46.5-9.5-63.2-26.3-16.7-16.6-26.3-39.7-26.2-63.3 0-23.9 9.3-46.4 26.2-63.4l102.3-102.3-19.4-19.5C432.8 189.9 382.4 169 331 169h-1c-51.5 0-101.9 20.9-138.2 57.4-76.4 76.5-76.4 200.8 0 277.3l48.1 48.2 57.3-57.4c7.8-7.8 18.6-12.3 29.7-12.3h0.1c11.3 0 21.9 4.4 29.9 12.4 7.9 7.8 12.3 18.7 12.3 29.8 0 2.5-0.2 4.9-0.6 7.3l-3.8 23 23-3.7c13.6-2.3 27.5 2.2 37.3 11.8 9.7 9.6 14.1 23.4 11.7 36.9l-4.1 23.2 23.3-3.7c13.6-2.1 27.5 2.3 37.2 11.8 8 7.9 12.3 18.5 12.3 29.8 0 2.4-0.2 4.9-0.6 7.2l-4 23.3 23.3-4c13.3-2.3 27.4 2.1 37.1 11.8 11 11 15.1 27 10.5 41.9l-2.9 9.6 28.9 28.9c5.9 5.9 14.7 9.3 24.2 9.3s18.3-3.4 24.2-9.3c13.3-13.3 13.3-35 0-48.3l-80-80 27.9-27.9 80 79.9c5.9 5.9 14.7 9.4 24.2 9.4s18.3-3.4 24-9.2c6.6-6.4 10.2-15 10.2-24.2 0-9.1-3.5-17.7-9.9-24.1l-80-80.1 27.9-27.9 80 80c12.1 12.1 36 12.2 48.5-0.1 13.5-13.4 13.4-35.1 0.1-48.3z" fill="#8CA4D1" p-id="7913"></path><path d="M822.8 561.1c25.2 25.3 25.2 66.3 0 91.6-15.4 15.2-37.4 21.9-58.7 17.7 4.3 21.3-2.3 43.3-17.6 58.7a66.174 66.174 0 0 1-58.7 17.6c4.3 21.3-2.3 43.3-17.6 58.7-15.5 15.2-37.5 21.8-58.8 17.6 4.3 21.3-2.3 43.3-17.6 58.7-12.1 12.2-28.5 19-45.7 19-17.2 0.1-33.7-6.8-45.8-19l-16.9-16.9c-1.6 1.3-3.2 2.6-4.9 3.8-9.9 6.7-21.7 10.2-33.6 10.1-14.1 0-27.4-4.5-37.4-12.7-13.8-11.1-21.8-28-21.7-45.7 0-3.4 0.3-6.7 0.8-10.1-18.9 3.1-38.1-3-51.7-16.5-13.7-13.5-19.8-32.8-16.4-51.7-18.9 3.1-38.1-3-51.7-16.4-13.6-13.5-19.8-32.9-16.4-51.8l-1.9 0.3c-0.9 0.2-1.7 0.3-2.6 0.4h-1.8c-1.2 0.1-2.5 0.2-3.7 0.2-15.7 0-30.7-6.2-41.7-17.3-11.1-11-17.3-26.1-17.3-41.7 0-15.7 6.1-30.5 17.3-41.7l8.2-8.2-36.3-36.3c-42.6-42.4-66.4-100.2-66.2-160.3 0-60.6 23.5-117.5 66.3-160.2 42.8-42.8 99.7-66.4 160.2-66.4 60.5 0 117.4 23.6 160.2 66.4l7.6 7.6 12.6-12.7c47.8-48 114.6-72 182-65.3 52.3 5.1 101.3 28.1 138.5 65.3 42.6 42.4 66.4 100.1 66.3 160.2 0 60.6-23.5 117.5-66.3 160.2L810 548.1l12.8 13zM621.2 579l1.7-1.8 49.9-49.9 91.8 91.9c2.9 2.9 7.4 4.6 12.3 4.6s9.4-1.7 12.4-4.6c6.8-6.8 6.7-17.8-0.1-24.6l-18.1-18.2L605 412.9l-78 78c-19.9 20-47 31.2-75.2 31.2-28.2 0.1-55.3-11.1-75.3-31.2-20-19.9-31.2-47-31.1-75.2 0-28.4 11.1-55.1 31.1-75.2L467 250l-7.6-7.7c-33.6-33.7-79.2-52.6-126.8-52.5-47.6-0.1-93.2 18.8-126.8 52.5-69.9 69.9-69.9 183.6 0 253.5l36.3 36.3 45.4-45.5c11-11.1 26.1-17.3 41.7-17.3 15.7 0 30.6 6.2 41.7 17.3 11.1 11 17.3 26 17.3 41.7 0 3.4-0.3 6.8-0.8 10 18.9-3.1 38.1 3.1 51.7 16.5 13.6 13.5 19.8 32.8 16.4 51.7 18.9-3 38.1 3.1 51.7 16.5 11.1 11.1 17.3 25.9 17.3 41.7 0 3.4-0.3 6.8-0.8 10 3.3-0.6 6.7-0.8 10-0.8 15.8 0 30.6 6.2 41.7 17.3 15.4 15.3 21.1 37.9 14.7 58.7l21.8 21.8c5.8 5.9 18.8 5.9 24.7 0 6.8-6.8 6.8-17.8 0-24.6l-91.9-91.9 1.7-1.8 49.9-49.9 1.8 1.7 90.1 90.1c5.8 5.9 18.8 5.9 24.6 0 3.3-3.2 5.1-7.6 5.1-12.3 0-4.7-1.8-9-5-12.2L621.2 579zM366.9 751.9c0 3.1 1.2 6.1 3.4 8.3 2 2 5 3.1 8.3 3.1 3.3 0 6.3-1.1 8.3-3.1l87.1-87.1c2.2-2.2 3.4-5.1 3.4-8.2 0-3.1-1.2-6.1-3.4-8.3-2.2-2.2-5.2-3.5-8.3-3.5-3.1 0-6.1 1.2-8.2 3.4l-87.1 87.1c-2.3 2.2-3.5 5.2-3.5 8.3z m-48.3-60l87.1-87.1c2.2-2.2 3.5-5.1 3.5-8.2 0-3.1-1.2-6.1-3.4-8.3-2.2-2.2-5.1-3.5-8.3-3.5-3.1 0-6.1 1.3-8.3 3.5l-87.1 87.1c-2.2 2.2-3.4 5.2-3.4 8.3 0 3.1 1.2 6.1 3.4 8.2 3.9 4 12.7 4 16.5 0z m-87.7-79.3l-0.1 0.6c-0.7 3.8 0.5 7.8 3.2 10.6 3.9 3.9 12.6 3.9 16.5 0l87.1-87.1c2.2-2.2 3.5-5.1 3.5-8.2 0-3.1-1.3-6.1-3.5-8.2-4.6-4.4-11.9-4.4-16.5 0l-86.9 86.9-3.3 5.4zM605 346l1.8 1.8L775 515.9l25.2-25.1c69.9-69.9 69.9-183.6 0-253.5-33.5-33.7-79.2-52.6-126.8-52.5-47.6-0.1-93.2 18.8-126.8 52.5L409.9 373.9c-11.1 11-17.4 26.1-17.3 41.8 0 15.8 6.2 30.6 17.3 41.8 11.1 11.1 26 17.3 41.8 17.3 15.8 0 30.6-6.1 41.8-17.3L605 346zM436.9 826.3c0.5 0.8 0.9 1.4 1.5 2 2.2 2.1 5.2 3.2 8.3 3.1 3.1 0.1 6-1 8.3-3.1l87.1-87.1c2.2-2.2 3.4-5.2 3.4-8.2 0-3.1-1.2-6.1-3.4-8.3-2.2-2.2-5.1-3.5-8.3-3.5-3.1 0-6.1 1.3-8.3 3.5l-87.1 87.1c-3.7 3.9-4.4 9.9-1.5 14.5z m82.1 5l16.8 16.8c5.9 5.9 18.8 5.9 24.6 0 6.8-6.8 6.8-17.8 0-24.6l-16.9-16.8-24.5 24.6z m0 0" fill="#1D4C75" p-id="7914"></path></svg>