<?xml version="1.0" standalone="no"?><!DOCTYPE svg PUBLIC "-//W3C//DTD SVG 1.1//EN" "http://www.w3.org/Graphics/SVG/1.1/DTD/svg11.dtd">
<svg t="1612357784702" class="icon" viewBox="0 0 1024 1024" version="1.1" xmlns="http://www.w3.org/2000/svg"
     p-id="14941"
     width="64" height="64"><defs><style type="text/css"></style></defs><path d="M448.1 576m-384 0a384 384 0 1 0 768 0 384 384 0 1 0-768 0Z" fill="#FFEFDB" p-id="14942"></path><path d="M886.4 113.1H788V93.2c0.1-7.7-3-15.2-8.4-20.7s-12.9-8.6-20.6-8.6h-0.1c-16.1 0-29.1 13.1-29.1 29.2l-0.1 20H509.9v-20c0-16.1-13-29.1-29.1-29.1s-29.1 13-29.1 29.1v20h-98.3c-40-0.2-72.7 31.9-73 71.9v204.7c-0.1 10.5 5.4 20.3 14.4 25.5 9.1 5.3 20.3 5.3 29.3 0 9.1-5.3 14.6-15.1 14.4-25.5v-90.4h562.6V596c-0.5 7.7-7 13.7-14.8 13.5h-533c-7.8 0.2-14.3-5.7-14.8-13.5v-31.7c0.1-10.5-5.4-20.3-14.4-25.5s-20.3-5.3-29.3 0c-9.1 5.3-14.6 15-14.4 25.5V596c0.3 40 33 72.2 73 71.9h533.1c40 0.2 72.6-32 72.9-71.9V185c-0.4-40-33-72.2-73-71.9z m14.7 147.3H338.6V185c0.5-7.7 7-13.7 14.8-13.5h98.3v20c0 16.1 13 29.1 29.1 29.1s29.1-13 29.1-29.1v-20h219.8l-0.1 19.9c0 7.7 3 15.2 8.5 20.7s12.9 8.6 20.6 8.6h0.1c16.1 0 29.1-13.1 29.1-29.2l0.1-20h98.5c7.8-0.2 14.3 5.7 14.8 13.5v75.4zM583.2 537.8" fill="#111111" p-id="14943"></path><path d="M585 547.8c7.4 0 14.4-2.9 19.6-8.1l151.5-142.1c10.8-10.9 10.8-28.4 0-39.3-5.2-5.2-12.2-8.1-19.6-8.1-7.3 0-14.4 2.9-19.6 8.1L585 480.7l-55.8-51.9c-5.2-5.2-12.2-8.1-19.6-8.1-7.3 0-14.4 2.9-19.6 8.1-10.8 10.9-10.8 28.4 0 39.3l75.4 71.5c5.3 5.2 12.3 8.2 19.6 8.2z" fill="#FF9E1F" p-id="14944"></path></svg>
