<?xml version="1.0" standalone="no"?><!DOCTYPE svg PUBLIC "-//W3C//DTD SVG 1.1//EN" "http://www.w3.org/Graphics/SVG/1.1/DTD/svg11.dtd">
<svg t="1612357804583" class="icon" viewBox="0 0 1026 1024" version="1.1" xmlns="http://www.w3.org/2000/svg"
     p-id="15526"
     width="64.125" height="64"><defs><style type="text/css"></style></defs><path d="M78.838672 433.010873h236.215104a78.537761 78.537761 0 0 0 78.537761-78.838672V78.838672A78.537761 78.537761 0 0 0 315.053776 0H78.838672A78.838672 78.838672 0 0 0 0 78.838672v275.333529a78.838672 78.838672 0 0 0 78.838672 78.838672zM945.462239 0h-236.215104A78.838672 78.838672 0 0 0 631.913018 78.838672v275.333529a78.838672 78.838672 0 0 0 78.838672 78.838672h236.215104A78.537761 78.537761 0 0 0 1023.097267 354.172201V78.838672A77.935939 77.935939 0 0 0 945.462239 0z m-631.913018 669.827799h-234.710549A78.537761 78.537761 0 0 0 0 748.36556v197.096679A78.537761 78.537761 0 0 0 78.838672 1023.097267h236.215104a78.537761 78.537761 0 0 0 78.537761-78.537761v-196.193946a77.935939 77.935939 0 0 0-78.537761-78.537761zM0 590.989127h1024.601822V511.548634H0zM551.569791 39.419336h-78.53776v394.193359h78.53776zM473.032031 1023.097267h78.53776v-274.731707h-78.53776zM631.913018 1023.097267h78.838672V669.225977H631.913018z m157.376432 0h77.334117V669.225977h-78.838671z m157.677344 0h79.139583v-274.731707h-80.042316V1023.097267z" fill="#5489C8" p-id="15527"></path></svg>
