<?xml version="1.0" standalone="no"?><!DOCTYPE svg PUBLIC "-//W3C//DTD SVG 1.1//EN" "http://www.w3.org/Graphics/SVG/1.1/DTD/svg11.dtd"><svg t="1613272075572" class="icon" viewBox="0 0 1082 1024" version="1.1" xmlns="http://www.w3.org/2000/svg" p-id="2138" xmlns:xlink="http://www.w3.org/1999/xlink" width="67.625" height="64"><defs><style type="text/css"></style></defs><path d="M216.55282 964.897008v-641.863913a44.123908 44.123908 0 0 0-43.310564-45.276145H43.310564A45.411702 45.411702 0 0 0 0 323.033095v641.863913z m275.655811 0V47.445062a45.953932 45.953932 0 0 0-43.310564-47.445062H318.966375a45.953932 45.953932 0 0 0-43.310564 47.445062v917.519725z m275.655812 0V559.309505a45.953932 45.953932 0 0 0-43.310564-47.445062H594.622187a45.953932 45.953932 0 0 0-43.310564 47.445062v405.587503z m275.655811 0v-641.863913a44.123908 44.123908 0 0 0-43.310564-45.276145H870.277998a45.411702 45.411702 0 0 0-43.310564 45.276145v641.863913z m39.379402 59.035213" fill="#4FD589" p-id="2139"></path></svg>