<?xml version="1.0" standalone="no"?><!DOCTYPE svg PUBLIC "-//W3C//DTD SVG 1.1//EN" "http://www.w3.org/Graphics/SVG/1.1/DTD/svg11.dtd"><svg class="icon" width="200px" height="194.12px" viewBox="0 0 1055 1024" version="1.1" xmlns="http://www.w3.org/2000/svg"><path fill="#d81e06" d="M245.548 497.182H191.54c-18.004 0-32.545-14.54-32.545-32.545v-54.01c0-18.004 14.54-32.545 32.544-32.545h54.01c18.004 0 32.546 14.54 32.546 32.544v54.011c0 18.003-14.542 32.545-32.546 32.545z m-54.009-95.557a8.984 8.984 0 0 0-9.003 9.001v54.012a8.984 8.984 0 0 0 9.002 9h54.01a8.984 8.984 0 0 0 9.002-9v-54.012a8.984 8.984 0 0 0-9.002-9H191.54z m54.01 268.252h-54.01c-18.004 0-32.545-14.542-32.545-32.545v-54.01c0-18.005 14.54-32.545 32.544-32.545h54.01c18.004 0 32.546 14.54 32.546 32.544v54.01c0 17.866-14.542 32.546-32.546 32.546z m-54.01-95.558a8.984 8.984 0 0 0-9.003 9.002v54.01a8.984 8.984 0 0 0 9.002 9.002h54.01a8.984 8.984 0 0 0 9.002-9.001v-54.01a8.984 8.984 0 0 0-9.002-9.003H191.54z m54.01 268.114h-54.01c-18.004 0-32.545-14.541-32.545-32.545v-54.01c0-18.004 14.54-32.545 32.544-32.545h54.01c18.004 0 32.546 14.54 32.546 32.544v54.01c0 18.005-14.542 32.546-32.546 32.546z m-54.01-95.557a8.984 8.984 0 0 0-9.003 9.001v54.01a8.984 8.984 0 0 0 9.002 9.003h54.01a8.984 8.984 0 0 0 9.002-9.002v-54.01a8.984 8.984 0 0 0-9.002-9.002H191.54zM527.372 458.82H349.276a3.724 3.724 0 0 1-3.739-3.738v-31.16c0-2.355 1.8-4.155 4.155-4.155h177.542a3.724 3.724 0 0 1 3.74 3.739v31.575c0.138 2.078-1.662 3.74-3.6 3.74zM494.55 629.853H349.692c-2.354 0-4.155-1.8-4.155-4.154v-30.744c0-2.355 1.8-4.155 4.155-4.155H494.55c2.354 0 4.155 1.8 4.155 4.155v30.744c0 2.215-1.938 4.154-4.155 4.154zM613.097 802.41H349.691c-2.353 0-4.154-1.8-4.154-4.154v-30.744c0-2.355 1.8-4.155 4.154-4.155h263.404c2.354 0 4.155 1.8 4.155 4.155v30.744c0 2.354-1.8 4.154-4.155 4.154zM832.184 338.336v-77.83c0-35.452-28.943-64.397-64.396-64.397h-58.996v-13.987c0-21.743-17.727-39.469-39.47-39.469H575.15c-9.832-58.581-67.86-103.729-137.795-103.729S309.392 84.072 299.56 142.652h-94.172c-21.743 0-39.469 17.726-39.469 39.469v13.987h-60.797c-35.452 0-64.397 28.945-64.397 64.397v662.667c0 35.452 28.945 64.396 64.397 64.396h662.666c35.454 0 64.397-28.944 64.397-64.396V753.939c104.56-11.356 186.268-100.266 186.268-207.871s-81.71-196.237-186.268-207.73zM437.356 76.316c48.886 0 89.74 28.529 99.572 66.336H337.783c9.832-37.808 50.685-66.336 99.573-66.336z m-234.047 124.5c0-1.662 0.138-3.185 0.553-4.708 2.078-9.141 10.388-16.065 20.22-16.065h426.544c9.833 0 18.14 6.924 20.22 16.065 0.415 1.523 0.552 3.046 0.552 4.709v36.006c0 1.662-0.276 3.324-0.691 4.986-2.217 9.002-10.388 15.787-20.082 15.787H224.082c-9.694 0-17.864-6.785-20.08-15.787-0.416-1.662-0.693-3.324-0.693-4.986v-36.006zM786.482 923.17c0 10.247-8.447 18.695-18.695 18.695H105.122c-10.249 0-18.696-8.447-18.696-18.695V260.505c0-10.248 8.447-18.695 18.696-18.695h60.796v13.71c0 21.742 17.726 39.468 39.469 39.468h463.936c21.742 0 39.469-17.726 39.469-39.468v-13.71h58.996c10.247 0 18.695 8.447 18.695 18.695v77.832C681.925 349.69 600.217 438.6 600.217 546.206s81.708 196.376 186.266 207.87v169.095z m45.701-209.672c-7.478 0.97-15.094 1.524-22.85 1.524s-15.372-0.554-22.85-1.523c-82.4-11.218-146.106-81.986-146.106-167.294 0-85.448 63.705-156.215 146.105-167.294 7.479-0.97 15.096-1.524 22.85-1.524s15.373 0.554 22.851 1.524c82.401 11.218 146.106 81.985 146.106 167.294-0.139 85.308-63.705 156.076-146.106 167.294zM893.397 467.407c8.032-8.31 21.88-8.31 30.883 0 8.031 8.309 8.031 22.158 0 30.467L787.315 633.869c-8.033 8.726-21.882 8.726-30.883 0l-0.693-0.692-61.766-62.043c-8.032-8.032-8.032-21.882 0-30.19 8.725-8.31 22.435-8.31 30.884 0l47.5 47.224 121.04-120.761z" /></svg>